<?xml version="1.0" standalone="no"?>
<!DOCTYPE svg PUBLIC "-//W3C//DTD SVG 20010904//EN"
 "http://www.w3.org/TR/2001/REC-SVG-20010904/DTD/svg10.dtd">
<svg version="1.0" xmlns="http://www.w3.org/2000/svg"
 width="1920.000000pt" height="1576.421053pt" viewBox="0 0 1920.000000 1576.421053"
 preserveAspectRatio="xMidYMid meet">
<metadata>
Created by potrace 1.16, written by Peter Selinger 2001-2019
</metadata>
<g transform="translate(0.000000,1576.421053) scale(2.021053,-2.021053)"
fill="#000000" stroke="none">
<path d="M0 390 l0 -390 475 0 475 0 0 390 0 390 -475 0 -475 0 0 -390z m442
35 c31 -50 54 -66 72 -47 4 4 17 8 29 9 12 1 36 5 52 8 81 14 86 13 117 -37
34 -56 49 -147 27 -164 -8 -6 -42 -26 -76 -45 -61 -33 -63 -33 -77 -14 -8 11
-56 38 -108 60 -73 32 -93 45 -93 60 0 17 6 20 43 17 25 -2 42 1 42 7 0 6 -23
48 -51 92 -28 45 -48 87 -45 95 11 28 35 13 68 -41z"/>
</g>
</svg>
