<?xml version="1.0" standalone="no"?>
<!DOCTYPE svg PUBLIC "-//W3C//DTD SVG 20010904//EN"
 "http://www.w3.org/TR/2001/REC-SVG-20010904/DTD/svg10.dtd">
<svg version="1.0" xmlns="http://www.w3.org/2000/svg"
 width="1920.000000pt" height="1576.421053pt" viewBox="0 0 1920.000000 1576.421053"
 preserveAspectRatio="xMidYMid meet">
<metadata>
Created by potrace 1.16, written by Peter Selinger 2001-2019
</metadata>
<g transform="translate(0.000000,1576.421053) scale(2.021053,-2.021053)"
fill="#000000" stroke="none">
<path d="M0 390 l0 -390 475 0 475 0 0 390 0 390 -475 0 -475 0 0 -390z m395
200 l80 -80 80 80 c71 72 83 80 117 80 29 0 41 -6 54 -26 l17 -25 -129 -130
c-71 -71 -133 -129 -139 -129 -5 0 -67 57 -137 127 -102 102 -128 133 -128
155 0 27 2 28 52 28 52 0 53 0 133 -80z m5 -245 l75 -75 75 75 c73 72 77 75
123 75 40 0 49 -4 58 -24 10 -22 1 -33 -123 -154 l-133 -131 -132 132 c-158
156 -166 177 -75 177 l58 0 74 -75z"/>
</g>
</svg>
